<mxfile host="app.diagrams.net" agent="Mozilla/5.0 (Windows NT 10.0; Win64; x64) AppleWebKit/537.36 (KHTML, like Gecko) Chrome/140.0.0.0 Safari/537.36 Edg/140.0.0.0" version="28.2.0">
  <diagram name="Page-1" id="O97LWqIRz6XVsHd0DmLD">
    <mxGraphModel grid="1" page="1" gridSize="10" guides="1" tooltips="1" connect="1" arrows="1" fold="1" pageScale="1" pageWidth="827" pageHeight="1169" background="light-dark(#FFFFFF,#000000)" math="0" shadow="0">
      <root>
        <mxCell id="0" />
        <mxCell id="1" parent="0" />
        <mxCell id="9k3ag1CtyuLUIb1iTbhB-22" value="" style="rounded=1;whiteSpace=wrap;html=1;align=left;" vertex="1" parent="1">
          <mxGeometry x="700" y="490" width="120" height="60" as="geometry" />
        </mxCell>
        <mxCell id="9k3ag1CtyuLUIb1iTbhB-1" value="User" style="swimlane;whiteSpace=wrap;html=1;align=left;" vertex="1" parent="1">
          <mxGeometry x="90" y="-160" width="200" height="190" as="geometry" />
        </mxCell>
        <mxCell id="9k3ag1CtyuLUIb1iTbhB-3" value="Nom&lt;div&gt;Prenom&lt;/div&gt;&lt;div&gt;Mail&lt;/div&gt;&lt;div&gt;Rôle&lt;/div&gt;&lt;div&gt;CV&lt;/div&gt;&lt;div&gt;specialité&lt;/div&gt;&lt;div&gt;adresse&lt;/div&gt;&lt;div&gt;entreprise&lt;/div&gt;&lt;div&gt;formation&lt;/div&gt;&lt;div&gt;EstProfesseur&lt;/div&gt;&lt;div&gt;EstValide&lt;/div&gt;" style="text;html=1;align=left;verticalAlign=middle;whiteSpace=wrap;rounded=0;" vertex="1" parent="9k3ag1CtyuLUIb1iTbhB-1">
          <mxGeometry y="25" width="200" height="170" as="geometry" />
        </mxCell>
        <mxCell id="9k3ag1CtyuLUIb1iTbhB-4" value="" style="endArrow=none;html=1;rounded=0;exitX=1;exitY=0.5;exitDx=0;exitDy=0;align=left;" edge="1" parent="1" source="9k3ag1CtyuLUIb1iTbhB-3" target="9k3ag1CtyuLUIb1iTbhB-5">
          <mxGeometry width="50" height="50" relative="1" as="geometry">
            <mxPoint x="370" y="100" as="sourcePoint" />
            <mxPoint x="460" y="-45" as="targetPoint" />
          </mxGeometry>
        </mxCell>
        <mxCell id="9k3ag1CtyuLUIb1iTbhB-5" value="Contact" style="swimlane;whiteSpace=wrap;html=1;align=left;" vertex="1" parent="1">
          <mxGeometry x="530" y="-150" width="200" height="200" as="geometry" />
        </mxCell>
        <mxCell id="9k3ag1CtyuLUIb1iTbhB-11" value="Numero de tel&lt;div&gt;User&lt;/div&gt;&lt;div&gt;Port&lt;/div&gt;&lt;div&gt;mail&lt;/div&gt;" style="text;html=1;align=left;verticalAlign=middle;whiteSpace=wrap;rounded=0;" vertex="1" parent="9k3ag1CtyuLUIb1iTbhB-5">
          <mxGeometry y="25" width="200" height="175" as="geometry" />
        </mxCell>
        <mxCell id="9k3ag1CtyuLUIb1iTbhB-6" value="" style="rounded=1;whiteSpace=wrap;html=1;align=left;" vertex="1" parent="1">
          <mxGeometry x="340" y="-90" width="120" height="60" as="geometry" />
        </mxCell>
        <mxCell id="9k3ag1CtyuLUIb1iTbhB-7" value="possede" style="text;html=1;align=left;verticalAlign=middle;whiteSpace=wrap;rounded=0;" vertex="1" parent="1">
          <mxGeometry x="340" y="-90" width="120" height="60" as="geometry" />
        </mxCell>
        <mxCell id="9k3ag1CtyuLUIb1iTbhB-8" value="o.n" style="text;html=1;align=left;verticalAlign=middle;whiteSpace=wrap;rounded=0;" vertex="1" parent="1">
          <mxGeometry x="290" y="-75" width="50" height="30" as="geometry" />
        </mxCell>
        <mxCell id="9k3ag1CtyuLUIb1iTbhB-9" value="1.1" style="text;html=1;align=left;verticalAlign=middle;whiteSpace=wrap;rounded=0;" vertex="1" parent="1">
          <mxGeometry x="470" y="-75" width="50" height="30" as="geometry" />
        </mxCell>
        <mxCell id="9k3ag1CtyuLUIb1iTbhB-24" value="o.n" style="text;html=1;align=left;verticalAlign=middle;whiteSpace=wrap;rounded=0;" vertex="1" parent="1">
          <mxGeometry x="630" y="500" width="60" height="30" as="geometry" />
        </mxCell>
        <mxCell id="9k3ag1CtyuLUIb1iTbhB-42" style="edgeStyle=none;rounded=0;orthogonalLoop=1;jettySize=auto;html=1;exitX=0.75;exitY=0;exitDx=0;exitDy=0;align=left;" edge="1" parent="1" source="9k3ag1CtyuLUIb1iTbhB-22">
          <mxGeometry relative="1" as="geometry">
            <mxPoint x="789.8947368421054" y="490" as="targetPoint" />
          </mxGeometry>
        </mxCell>
        <mxCell id="9k3ag1CtyuLUIb1iTbhB-28" value="possede" style="text;html=1;align=left;verticalAlign=middle;whiteSpace=wrap;rounded=0;" vertex="1" parent="1">
          <mxGeometry x="710" y="500" width="100" height="40" as="geometry" />
        </mxCell>
        <mxCell id="9k3ag1CtyuLUIb1iTbhB-30" value="1.n" style="text;html=1;align=left;verticalAlign=middle;whiteSpace=wrap;rounded=0;" vertex="1" parent="1">
          <mxGeometry x="910" y="570" width="60" height="30" as="geometry" />
        </mxCell>
        <mxCell id="9k3ag1CtyuLUIb1iTbhB-41" style="edgeStyle=none;rounded=0;orthogonalLoop=1;jettySize=auto;html=1;exitX=0.414;exitY=1.056;exitDx=0;exitDy=0;entryX=0;entryY=0.5;entryDx=0;entryDy=0;align=left;exitPerimeter=0;" edge="1" parent="1" source="PUnO8kavKm6sL2_Y-qrn-2" target="9k3ag1CtyuLUIb1iTbhB-40">
          <mxGeometry relative="1" as="geometry" />
        </mxCell>
        <mxCell id="9k3ag1CtyuLUIb1iTbhB-32" value="Sujet" style="swimlane;whiteSpace=wrap;html=1;startSize=23;align=left;" vertex="1" parent="1">
          <mxGeometry x="1041" y="460" width="200" height="200" as="geometry" />
        </mxCell>
        <mxCell id="9k3ag1CtyuLUIb1iTbhB-33" value="message&lt;div&gt;pj&lt;/div&gt;" style="text;html=1;align=left;verticalAlign=middle;whiteSpace=wrap;rounded=0;" vertex="1" parent="9k3ag1CtyuLUIb1iTbhB-32">
          <mxGeometry y="20" width="200" height="180" as="geometry" />
        </mxCell>
        <mxCell id="9k3ag1CtyuLUIb1iTbhB-34" value="Flux" style="swimlane;whiteSpace=wrap;html=1;startSize=23;align=left;" vertex="1" parent="1">
          <mxGeometry x="820" y="300" width="150" height="150" as="geometry" />
        </mxCell>
        <mxCell id="9k3ag1CtyuLUIb1iTbhB-37" value="formalité" style="text;html=1;align=left;verticalAlign=middle;whiteSpace=wrap;rounded=0;" vertex="1" parent="9k3ag1CtyuLUIb1iTbhB-34">
          <mxGeometry y="30" width="150" height="120" as="geometry" />
        </mxCell>
        <mxCell id="9k3ag1CtyuLUIb1iTbhB-35" style="edgeStyle=none;rounded=0;orthogonalLoop=1;jettySize=auto;html=1;entryX=1;entryY=0.5;entryDx=0;entryDy=0;exitX=0;exitY=0.25;exitDx=0;exitDy=0;align=left;" edge="1" parent="1" source="9k3ag1CtyuLUIb1iTbhB-33" target="9k3ag1CtyuLUIb1iTbhB-34">
          <mxGeometry relative="1" as="geometry">
            <Array as="points">
              <mxPoint x="1000" y="510" />
              <mxPoint x="1020" y="440" />
            </Array>
          </mxGeometry>
        </mxCell>
        <mxCell id="9k3ag1CtyuLUIb1iTbhB-38" value="comm" style="swimlane;whiteSpace=wrap;html=1;align=left;" vertex="1" parent="1">
          <mxGeometry x="1130" y="280" width="140" height="130" as="geometry" />
        </mxCell>
        <mxCell id="9k3ag1CtyuLUIb1iTbhB-40" value="reponse&lt;div&gt;message auquel il est lié&lt;/div&gt;&lt;div&gt;(ref-forum)&lt;/div&gt;&lt;div&gt;date creation&lt;/div&gt;" style="text;html=1;align=left;verticalAlign=middle;whiteSpace=wrap;rounded=0;" vertex="1" parent="9k3ag1CtyuLUIb1iTbhB-38">
          <mxGeometry y="30" width="140" height="100" as="geometry" />
        </mxCell>
        <mxCell id="9k3ag1CtyuLUIb1iTbhB-17" style="edgeStyle=none;rounded=0;orthogonalLoop=1;jettySize=auto;html=1;exitX=0;exitY=0;exitDx=0;exitDy=0;entryX=-0.001;entryY=0.652;entryDx=0;entryDy=0;entryPerimeter=0;align=left;" edge="1" parent="1" source="9k3ag1CtyuLUIb1iTbhB-3" target="9k3ag1CtyuLUIb1iTbhB-33">
          <mxGeometry relative="1" as="geometry">
            <mxPoint x="1020" y="410" as="targetPoint" />
            <Array as="points">
              <mxPoint x="60" y="-110" />
              <mxPoint x="30" y="-40" />
              <mxPoint x="40" y="30" />
              <mxPoint x="60" y="170" />
              <mxPoint x="90" y="310" />
              <mxPoint x="180" y="520" />
              <mxPoint x="360" y="520" />
              <mxPoint x="850" y="530" />
            </Array>
          </mxGeometry>
        </mxCell>
        <mxCell id="9k3ag1CtyuLUIb1iTbhB-44" value="offre" style="swimlane;whiteSpace=wrap;html=1;startSize=40;align=left;" vertex="1" parent="1">
          <mxGeometry x="900" y="-420" width="160" height="170" as="geometry" />
        </mxCell>
        <mxCell id="9k3ag1CtyuLUIb1iTbhB-47" value="titre&lt;div&gt;description&lt;/div&gt;&lt;div&gt;mission&lt;/div&gt;&lt;div&gt;salaire (pas obligatoire)&lt;/div&gt;&lt;div&gt;type (Alternance/CDD/CDI/Stage)&lt;/div&gt;&lt;div&gt;etat (ouvert peut postuler / former&lt;/div&gt;&lt;div&gt;date creation&lt;/div&gt;" style="text;html=1;align=left;verticalAlign=middle;whiteSpace=wrap;rounded=0;" vertex="1" parent="9k3ag1CtyuLUIb1iTbhB-44">
          <mxGeometry x="5" y="50" width="150" height="110" as="geometry" />
        </mxCell>
        <mxCell id="9k3ag1CtyuLUIb1iTbhB-48" value="" style="endArrow=classic;html=1;rounded=0;entryX=0;entryY=0.5;entryDx=0;entryDy=0;align=left;" edge="1" parent="1" target="9k3ag1CtyuLUIb1iTbhB-47">
          <mxGeometry width="50" height="50" relative="1" as="geometry">
            <mxPoint x="290" y="-160" as="sourcePoint" />
            <mxPoint x="340" y="-210" as="targetPoint" />
            <Array as="points">
              <mxPoint x="560" y="-290" />
            </Array>
          </mxGeometry>
        </mxCell>
        <mxCell id="9k3ag1CtyuLUIb1iTbhB-49" value="o.n" style="text;html=1;align=left;verticalAlign=middle;whiteSpace=wrap;rounded=0;" vertex="1" parent="1">
          <mxGeometry x="310" y="-170" width="60" height="30" as="geometry" />
        </mxCell>
        <mxCell id="9k3ag1CtyuLUIb1iTbhB-50" value="o.n" style="text;html=1;align=left;verticalAlign=middle;whiteSpace=wrap;rounded=0;" vertex="1" parent="1">
          <mxGeometry x="320" y="-240" width="60" height="30" as="geometry" />
        </mxCell>
        <mxCell id="9k3ag1CtyuLUIb1iTbhB-51" value="o.n" style="text;html=1;align=left;verticalAlign=middle;whiteSpace=wrap;rounded=0;" vertex="1" parent="1">
          <mxGeometry x="470" y="-310" width="60" height="30" as="geometry" />
        </mxCell>
        <mxCell id="9k3ag1CtyuLUIb1iTbhB-53" value="" style="rounded=1;whiteSpace=wrap;html=1;align=left;" vertex="1" parent="1">
          <mxGeometry x="540" y="-325" width="120" height="60" as="geometry" />
        </mxCell>
        <mxCell id="9k3ag1CtyuLUIb1iTbhB-52" value="postuler" style="text;html=1;align=left;verticalAlign=middle;whiteSpace=wrap;rounded=0;" vertex="1" parent="1">
          <mxGeometry x="540" y="-330" width="120" height="60" as="geometry" />
        </mxCell>
        <mxCell id="9k3ag1CtyuLUIb1iTbhB-54" value="o.n" style="text;html=1;align=left;verticalAlign=middle;whiteSpace=wrap;rounded=0;" vertex="1" parent="1">
          <mxGeometry x="670" y="-330" width="60" height="30" as="geometry" />
        </mxCell>
        <mxCell id="9k3ag1CtyuLUIb1iTbhB-55" value="" style="endArrow=classic;html=1;rounded=0;exitX=1;exitY=0.75;exitDx=0;exitDy=0;entryX=0.5;entryY=1;entryDx=0;entryDy=0;" edge="1" parent="1" source="9k3ag1CtyuLUIb1iTbhB-3" target="9k3ag1CtyuLUIb1iTbhB-44">
          <mxGeometry width="50" height="50" relative="1" as="geometry">
            <mxPoint x="320" y="50" as="sourcePoint" />
            <mxPoint x="1000" y="-90" as="targetPoint" />
            <Array as="points">
              <mxPoint x="440" y="60" />
              <mxPoint x="470" y="160" />
              <mxPoint x="830" y="160" />
              <mxPoint x="950" />
            </Array>
          </mxGeometry>
        </mxCell>
        <mxCell id="9k3ag1CtyuLUIb1iTbhB-56" value="o.n" style="text;html=1;align=center;verticalAlign=middle;whiteSpace=wrap;rounded=0;" vertex="1" parent="1">
          <mxGeometry x="470" y="130" width="60" height="30" as="geometry" />
        </mxCell>
        <mxCell id="9k3ag1CtyuLUIb1iTbhB-57" value="" style="rounded=1;whiteSpace=wrap;html=1;" vertex="1" parent="1">
          <mxGeometry x="580" y="130" width="120" height="60" as="geometry" />
        </mxCell>
        <mxCell id="9k3ag1CtyuLUIb1iTbhB-58" value="possede" style="text;html=1;align=center;verticalAlign=middle;whiteSpace=wrap;rounded=0;" vertex="1" parent="1">
          <mxGeometry x="580" y="130" width="120" height="60" as="geometry" />
        </mxCell>
        <mxCell id="9k3ag1CtyuLUIb1iTbhB-59" value="1.1" style="text;html=1;align=center;verticalAlign=middle;whiteSpace=wrap;rounded=0;" vertex="1" parent="1">
          <mxGeometry x="750" y="120" width="60" height="30" as="geometry" />
        </mxCell>
        <mxCell id="9k3ag1CtyuLUIb1iTbhB-60" value="evenement" style="swimlane;whiteSpace=wrap;html=1;" vertex="1" parent="1">
          <mxGeometry x="1041" y="-30" width="200" height="200" as="geometry" />
        </mxCell>
        <mxCell id="9k3ag1CtyuLUIb1iTbhB-61" value="titre&lt;div&gt;description&lt;/div&gt;&lt;div&gt;type&lt;/div&gt;&lt;div&gt;adresse&lt;/div&gt;&lt;div&gt;nombre de place&lt;/div&gt;" style="text;html=1;align=center;verticalAlign=middle;whiteSpace=wrap;rounded=0;" vertex="1" parent="9k3ag1CtyuLUIb1iTbhB-60">
          <mxGeometry y="30" width="200" height="170" as="geometry" />
        </mxCell>
        <mxCell id="9k3ag1CtyuLUIb1iTbhB-63" value="établissement" style="swimlane;whiteSpace=wrap;html=1;startSize=23;" vertex="1" parent="1">
          <mxGeometry x="280" y="110" width="160" height="180" as="geometry" />
        </mxCell>
        <mxCell id="9k3ag1CtyuLUIb1iTbhB-64" value="NomEtablissement&lt;div&gt;adresse&lt;/div&gt;&lt;div&gt;mail&lt;/div&gt;&lt;div&gt;tel&lt;/div&gt;" style="text;html=1;align=center;verticalAlign=middle;whiteSpace=wrap;rounded=0;" vertex="1" parent="9k3ag1CtyuLUIb1iTbhB-63">
          <mxGeometry y="30" width="160" height="150" as="geometry" />
        </mxCell>
        <mxCell id="9k3ag1CtyuLUIb1iTbhB-65" value="" style="endArrow=classic;html=1;rounded=0;entryX=0;entryY=0.5;entryDx=0;entryDy=0;" edge="1" parent="1" source="9k3ag1CtyuLUIb1iTbhB-3" target="9k3ag1CtyuLUIb1iTbhB-64">
          <mxGeometry width="50" height="50" relative="1" as="geometry">
            <mxPoint x="100" y="245" as="sourcePoint" />
            <mxPoint x="190" y="105.71067811865476" as="targetPoint" />
            <Array as="points">
              <mxPoint x="210" y="150" />
            </Array>
          </mxGeometry>
        </mxCell>
        <mxCell id="9k3ag1CtyuLUIb1iTbhB-66" value="correspond" style="rounded=1;whiteSpace=wrap;html=1;" vertex="1" parent="1">
          <mxGeometry x="160" y="120" width="100" height="30" as="geometry" />
        </mxCell>
        <mxCell id="9k3ag1CtyuLUIb1iTbhB-67" value="0.1&lt;span style=&quot;color: rgba(0, 0, 0, 0); font-family: monospace; font-size: 0px; text-align: start; text-wrap-mode: nowrap;&quot;&gt;%3CmxGraphModel%3E%3Croot%3E%3CmxCell%20id%3D%220%22%2F%3E%3CmxCell%20id%3D%221%22%20parent%3D%220%22%2F%3E%3CmxCell%20id%3D%222%22%20value%3D%22o.n%22%20style%3D%22text%3Bhtml%3D1%3Balign%3Dcenter%3BverticalAlign%3Dmiddle%3BwhiteSpace%3Dwrap%3Brounded%3D0%3B%22%20vertex%3D%221%22%20parent%3D%221%22%3E%3CmxGeometry%20x%3D%22470%22%20y%3D%22-310%22%20width%3D%2260%22%20height%3D%2230%22%20as%3D%22geometry%22%2F%3E%3C%2FmxCell%3E%3C%2Froot%3E%3C%2FmxGraphModel%3E&lt;/span&gt;" style="text;html=1;align=center;verticalAlign=middle;whiteSpace=wrap;rounded=0;" vertex="1" parent="1">
          <mxGeometry x="220" y="60" width="60" height="30" as="geometry" />
        </mxCell>
        <mxCell id="9k3ag1CtyuLUIb1iTbhB-68" value="1.n" style="text;html=1;align=center;verticalAlign=middle;whiteSpace=wrap;rounded=0;" vertex="1" parent="1">
          <mxGeometry x="230" y="160" width="60" height="30" as="geometry" />
        </mxCell>
        <mxCell id="9k3ag1CtyuLUIb1iTbhB-69" value="" style="endArrow=classic;html=1;rounded=0;exitX=0;exitY=1;exitDx=0;exitDy=0;entryX=0;entryY=0.75;entryDx=0;entryDy=0;" edge="1" parent="1" source="9k3ag1CtyuLUIb1iTbhB-3" target="9k3ag1CtyuLUIb1iTbhB-61">
          <mxGeometry width="50" height="50" relative="1" as="geometry">
            <mxPoint x="100" y="80" as="sourcePoint" />
            <mxPoint x="690" y="390" as="targetPoint" />
            <Array as="points">
              <mxPoint x="110" y="280" />
              <mxPoint x="220" y="430" />
              <mxPoint x="390" y="430" />
              <mxPoint x="500" y="430" />
              <mxPoint x="580" y="400" />
            </Array>
          </mxGeometry>
        </mxCell>
        <mxCell id="9k3ag1CtyuLUIb1iTbhB-70" value="o.n" style="text;html=1;align=center;verticalAlign=middle;whiteSpace=wrap;rounded=0;" vertex="1" parent="1">
          <mxGeometry x="230" y="390" width="60" height="30" as="geometry" />
        </mxCell>
        <mxCell id="9k3ag1CtyuLUIb1iTbhB-71" value="correspond" style="rounded=1;whiteSpace=wrap;html=1;" vertex="1" parent="1">
          <mxGeometry x="320" y="400" width="120" height="50" as="geometry" />
        </mxCell>
        <mxCell id="9k3ag1CtyuLUIb1iTbhB-72" value="1.n" style="text;html=1;align=center;verticalAlign=middle;whiteSpace=wrap;rounded=0;" vertex="1" parent="1">
          <mxGeometry x="465" y="400" width="60" height="30" as="geometry" />
        </mxCell>
        <mxCell id="9k3ag1CtyuLUIb1iTbhB-73" value="" style="endArrow=classic;html=1;rounded=0;exitX=0.25;exitY=1;exitDx=0;exitDy=0;entryX=0;entryY=0.5;entryDx=0;entryDy=0;" edge="1" parent="1" source="9k3ag1CtyuLUIb1iTbhB-3" target="9k3ag1CtyuLUIb1iTbhB-61">
          <mxGeometry width="50" height="50" relative="1" as="geometry">
            <mxPoint x="120" y="80" as="sourcePoint" />
            <mxPoint x="730" y="250" as="targetPoint" />
            <Array as="points">
              <mxPoint x="150" y="210" />
              <mxPoint x="210" y="330" />
              <mxPoint x="480" y="330" />
            </Array>
          </mxGeometry>
        </mxCell>
        <mxCell id="9k3ag1CtyuLUIb1iTbhB-74" value="o.n" style="text;html=1;align=center;verticalAlign=middle;whiteSpace=wrap;rounded=0;" vertex="1" parent="1">
          <mxGeometry x="200" y="290" width="60" height="30" as="geometry" />
        </mxCell>
        <mxCell id="9k3ag1CtyuLUIb1iTbhB-75" value="inscrit" style="rounded=1;whiteSpace=wrap;html=1;" vertex="1" parent="1">
          <mxGeometry x="310" y="300" width="120" height="60" as="geometry" />
        </mxCell>
        <mxCell id="9k3ag1CtyuLUIb1iTbhB-76" value="o.n" style="text;html=1;align=center;verticalAlign=middle;whiteSpace=wrap;rounded=0;" vertex="1" parent="1">
          <mxGeometry x="460" y="290" width="60" height="30" as="geometry" />
        </mxCell>
        <mxCell id="PUnO8kavKm6sL2_Y-qrn-1" value="o.n" style="text;html=1;align=center;verticalAlign=middle;whiteSpace=wrap;rounded=0;" vertex="1" parent="1">
          <mxGeometry x="1070" y="350" width="60" height="30" as="geometry" />
        </mxCell>
        <mxCell id="PUnO8kavKm6sL2_Y-qrn-3" value="" style="edgeStyle=none;rounded=0;orthogonalLoop=1;jettySize=auto;html=1;exitX=0.25;exitY=0;exitDx=0;exitDy=0;entryX=0.429;entryY=0;entryDx=0;entryDy=0;align=left;entryPerimeter=0;" edge="1" parent="1" source="9k3ag1CtyuLUIb1iTbhB-32" target="PUnO8kavKm6sL2_Y-qrn-2">
          <mxGeometry relative="1" as="geometry">
            <mxPoint x="1091" y="460" as="sourcePoint" />
            <mxPoint x="1130" y="360" as="targetPoint" />
          </mxGeometry>
        </mxCell>
        <mxCell id="PUnO8kavKm6sL2_Y-qrn-2" value="repond" style="rounded=1;whiteSpace=wrap;html=1;" vertex="1" parent="1">
          <mxGeometry x="1050" y="410" width="70" height="10" as="geometry" />
        </mxCell>
        <mxCell id="PUnO8kavKm6sL2_Y-qrn-4" value="1.1" style="text;html=1;align=center;verticalAlign=middle;whiteSpace=wrap;rounded=0;" vertex="1" parent="1">
          <mxGeometry x="1080" y="430" width="60" height="30" as="geometry" />
        </mxCell>
        <mxCell id="PUnO8kavKm6sL2_Y-qrn-5" value="o.n" style="text;html=1;align=center;verticalAlign=middle;whiteSpace=wrap;rounded=0;" vertex="1" parent="1">
          <mxGeometry x="990" y="520" width="60" height="30" as="geometry" />
        </mxCell>
        <mxCell id="PUnO8kavKm6sL2_Y-qrn-6" value="o.n" style="text;html=1;align=center;verticalAlign=middle;whiteSpace=wrap;rounded=0;" vertex="1" parent="1">
          <mxGeometry x="980" y="375" width="60" height="30" as="geometry" />
        </mxCell>
        <mxCell id="PUnO8kavKm6sL2_Y-qrn-7" value="concerne" style="rounded=1;whiteSpace=wrap;html=1;" vertex="1" parent="1">
          <mxGeometry x="950" y="460" width="80" height="20" as="geometry" />
        </mxCell>
      </root>
    </mxGraphModel>
  </diagram>
</mxfile>
